<svg xmlns="http://www.w3.org/2000/svg" xmlns:xlink="http://www.w3.org/1999/xlink" width="500" zoomAndPan="magnify" viewBox="0 0 375 374.999991" height="500" preserveAspectRatio="xMidYMid meet" version="1.0"><path fill="#8e05c2" d="M 134.640625 42.621094 C 134.640625 42.621094 156.140625 25.960938 164.871094 38.699219 C 173.605469 51.4375 152.109375 74.972656 142.703125 71.644531 C 133.300781 68.320312 114.496094 65.988281 134.640625 42.621094 Z M 134.640625 42.621094 " fill-opacity="1" fill-rule="nonzero"/><path fill="#8e05c2" d="M 13.382812 201.699219 C 13.382812 201.699219 55.953125 178.210938 61.820312 179.679688 C 67.6875 181.144531 55.953125 156.191406 83.839844 141.515625 C 111.726562 126.839844 72.074219 113.136719 83.839844 94.058594 C 95.605469 74.980469 113.195312 104.324219 136.195312 106.285156 C 159.195312 108.246094 177.769531 118.515625 191.96875 74.484375 C 206.164062 30.453125 215.453125 4.019531 236.988281 12.835938 C 258.519531 21.652344 261.941406 40.238281 248.753906 63.714844 C 235.566406 87.195312 227.195312 102.859375 232.089844 116.070312 C 236.988281 129.277344 260.472656 126.34375 284.929688 120.476562 C 309.390625 114.609375 317.226562 132.242188 305.484375 145.429688 C 293.742188 158.617188 264.386719 165.003906 268.789062 175.238281 C 273.1875 185.476562 304.503906 188.449219 327.015625 179.640625 C 349.53125 170.832031 355.882812 163.949219 360.746094 186.980469 C 365.609375 210.011719 325.519531 215.851562 309.859375 217.804688 C 294.203125 219.757812 277.078125 237.859375 295.679688 248.632812 C 314.277344 259.402344 334.328125 284.832031 334.328125 299.023438 C 334.328125 313.214844 306.441406 339.148438 270.726562 325.9375 C 235.011719 312.726562 209.539062 296.089844 211.03125 306.851562 C 212.519531 317.613281 233.046875 354.804688 223.257812 360.671875 C 213.46875 366.539062 193.449219 360.671875 175.800781 338.167969 C 158.148438 315.660156 167.957031 364.101562 135.675781 369.480469 C 103.394531 374.863281 72.613281 331.359375 79.441406 298.082031 C 86.265625 264.804688 16.316406 269.710938 8.980469 247.691406 C 1.648438 225.671875 0.660156 221.308594 13.382812 201.699219 Z M 13.382812 201.699219 " fill-opacity="1" fill-rule="nonzero"/><path fill="#e29aff" d="M 22.011719 197.847656 C 22.011719 197.847656 64.582031 174.367188 70.449219 175.835938 C 76.316406 177.300781 64.582031 152.347656 92.46875 137.664062 C 120.355469 122.980469 80.703125 109.292969 92.46875 90.207031 C 104.234375 71.121094 121.824219 100.480469 144.824219 102.441406 C 167.824219 104.402344 186.398438 114.671875 200.597656 70.632812 C 214.792969 26.59375 224.082031 0.183594 245.617188 8.984375 C 267.148438 17.785156 270.570312 36.386719 257.382812 59.871094 C 244.195312 83.359375 235.847656 99.015625 240.742188 112.226562 C 245.640625 125.433594 269.125 122.5 293.582031 116.625 C 318.042969 110.75 325.878906 128.390625 314.136719 141.578125 C 302.394531 154.765625 273.039062 161.152344 277.441406 171.386719 C 281.839844 181.625 313.15625 184.597656 335.667969 175.796875 C 358.183594 166.996094 364.535156 160.105469 369.398438 183.128906 C 374.261719 206.152344 334.171875 212 318.511719 213.960938 C 302.855469 215.921875 285.730469 234.054688 304.332031 244.84375 C 322.929688 255.628906 342.980469 281.050781 342.980469 295.242188 C 342.980469 309.433594 315.09375 335.359375 279.378906 322.148438 C 243.664062 308.9375 218.191406 292.339844 219.683594 303.070312 C 221.171875 313.800781 241.699219 351.015625 231.910156 356.890625 C 222.121094 362.765625 202.101562 356.890625 184.453125 334.386719 C 166.800781 311.878906 176.609375 360.3125 144.328125 365.703125 C 112.046875 371.089844 81.242188 327.507812 88.070312 294.261719 C 94.894531 261.019531 24.945312 265.882812 17.609375 243.871094 C 10.277344 221.859375 9.289062 217.386719 22.011719 197.847656 Z M 22.011719 197.847656 " fill-opacity="1" fill-rule="nonzero"/><path fill="#e29aff" d="M 132.484375 39.578125 C 132.484375 39.578125 153.976562 22.925781 162.714844 35.65625 C 171.453125 48.386719 149.953125 71.929688 140.546875 68.5625 C 131.140625 65.199219 112.332031 62.953125 132.484375 39.578125 Z M 132.484375 39.578125 " fill-opacity="1" fill-rule="nonzero"/></svg>