<svg xmlns="http://www.w3.org/2000/svg" xmlns:xlink="http://www.w3.org/1999/xlink" width="500" zoomAndPan="magnify" viewBox="0 0 375 374.999991" height="500" preserveAspectRatio="xMidYMid meet" version="1.0"><path fill="#8e05c2" d="M 240.351562 42.621094 C 240.351562 42.621094 218.851562 25.960938 210.121094 38.699219 C 201.390625 51.4375 222.882812 74.972656 232.289062 71.644531 C 241.691406 68.320312 260.496094 65.988281 240.351562 42.621094 Z M 240.351562 42.621094 " fill-opacity="1" fill-rule="nonzero"/><path fill="#8e05c2" d="M 361.609375 201.699219 C 361.609375 201.699219 319.039062 178.210938 313.171875 179.679688 C 307.304688 181.144531 319.039062 156.191406 291.152344 141.515625 C 263.265625 126.839844 302.917969 113.136719 291.152344 94.058594 C 279.386719 74.980469 261.796875 104.324219 238.796875 106.285156 C 215.800781 108.246094 197.222656 118.515625 183.023438 74.484375 C 168.828125 30.453125 159.539062 4.019531 138.007812 12.835938 C 116.472656 21.652344 113.054688 40.238281 126.238281 63.714844 C 139.425781 87.195312 147.796875 102.859375 142.902344 116.070312 C 138.007812 129.277344 114.519531 126.34375 90.0625 120.476562 C 65.601562 114.609375 57.765625 132.242188 69.507812 145.429688 C 81.25 158.617188 110.605469 165.003906 106.203125 175.238281 C 101.804688 185.476562 70.488281 188.449219 47.976562 179.640625 C 25.460938 170.832031 19.109375 163.949219 14.246094 186.980469 C 9.382812 210.011719 49.472656 215.851562 65.132812 217.804688 C 80.789062 219.757812 97.914062 237.859375 79.3125 248.632812 C 60.714844 259.402344 40.664062 284.832031 40.664062 299.023438 C 40.664062 313.214844 68.550781 339.148438 104.265625 325.9375 C 139.984375 312.726562 165.453125 296.089844 163.964844 306.851562 C 162.472656 317.613281 141.945312 354.804688 151.734375 360.671875 C 161.523438 366.539062 181.542969 360.671875 199.191406 338.167969 C 216.84375 315.660156 207.035156 364.101562 239.316406 369.480469 C 271.597656 374.863281 302.378906 331.359375 295.554688 298.082031 C 288.726562 264.804688 358.675781 269.710938 366.011719 247.691406 C 373.347656 225.671875 374.335938 221.308594 361.609375 201.699219 Z M 361.609375 201.699219 " fill-opacity="1" fill-rule="nonzero"/><path fill="#e29aff" d="M 352.980469 197.847656 C 352.980469 197.847656 310.410156 174.367188 304.542969 175.835938 C 298.675781 177.300781 310.410156 152.347656 282.523438 137.664062 C 254.636719 122.980469 294.289062 109.292969 282.523438 90.207031 C 270.757812 71.121094 253.167969 100.480469 230.167969 102.441406 C 207.171875 104.402344 188.59375 114.671875 174.394531 70.632812 C 160.199219 26.59375 150.910156 0.183594 129.378906 8.984375 C 107.84375 17.785156 104.425781 36.386719 117.609375 59.871094 C 130.796875 83.359375 139.144531 99.015625 134.25 112.226562 C 129.355469 125.433594 105.867188 122.5 81.410156 116.625 C 56.949219 110.75 49.113281 128.390625 60.855469 141.578125 C 72.597656 154.765625 101.953125 161.152344 97.550781 171.386719 C 93.152344 181.625 61.835938 184.597656 39.324219 175.796875 C 16.808594 166.996094 10.457031 160.105469 5.59375 183.128906 C 0.730469 206.152344 40.820312 212 56.480469 213.960938 C 72.136719 215.921875 89.261719 234.054688 70.660156 244.84375 C 52.0625 255.628906 32.011719 281.050781 32.011719 295.242188 C 32.011719 309.433594 59.898438 335.359375 95.613281 322.148438 C 131.332031 308.9375 156.800781 292.339844 155.3125 303.070312 C 153.820312 313.800781 133.292969 351.015625 143.082031 356.890625 C 152.871094 362.765625 172.890625 356.890625 190.539062 334.386719 C 208.191406 311.878906 198.382812 360.3125 230.664062 365.703125 C 262.945312 371.089844 293.75 327.507812 286.925781 294.261719 C 280.097656 261.019531 350.046875 265.882812 357.382812 243.871094 C 364.71875 221.859375 365.707031 217.386719 352.980469 197.847656 Z M 352.980469 197.847656 " fill-opacity="1" fill-rule="nonzero"/><path fill="#e29aff" d="M 242.507812 39.578125 C 242.507812 39.578125 221.015625 22.925781 212.277344 35.65625 C 203.539062 48.386719 225.039062 71.929688 234.445312 68.5625 C 243.851562 65.199219 262.660156 62.953125 242.507812 39.578125 Z M 242.507812 39.578125 " fill-opacity="1" fill-rule="nonzero"/></svg>